HIERARCHY
ROOT Hips
{
	OFFSET	0.00	0.00	0.00
	CHANNELS 6 Xposition Yposition Zposition Zrotation Xrotation Yrotation
	JOINT LeftUpLeg
	{
		OFFSET	 0.126116	-0.014019	-0.065224
		CHANNELS 3 Zrotation Xrotation Yrotation
		JOINT LeftLeg
		{
			OFFSET	 0.000000	 0.000000	 0.569914
			CHANNELS 3 Zrotation Xrotation Yrotation
			JOINT LeftFoot
			{
				OFFSET	 0.000000	 0.000000	 0.544423
				CHANNELS 3 Zrotation Xrotation Yrotation
				JOINT LeftToeBase
				{
					OFFSET	 0.000000	 0.000000	 0.207117
					CHANNELS 3 Zrotation Xrotation Yrotation
					End Site
					{
						OFFSET	 0.000000	 0.000000	 0.207117
					}
				}
			}
		}
	}
	JOINT RightUpLeg
	{
		OFFSET	-0.124023	-0.008373	-0.065224
		CHANNELS 3 Zrotation Xrotation Yrotation
		JOINT RightLeg
		{
			OFFSET	 0.000000	 0.000000	 0.570047
			CHANNELS 3 Zrotation Xrotation Yrotation
			JOINT RightFoot
			{
				OFFSET	 0.000000	 0.000000	 0.544354
				CHANNELS 3 Zrotation Xrotation Yrotation
				JOINT RightToeBase
				{
					OFFSET	 0.000000	 0.000000	 0.207540
					CHANNELS 3 Zrotation Xrotation Yrotation
					End Site
					{
						OFFSET	 0.000000	 0.000000	 0.207540
					}
				}
			}
		}
	}
	JOINT Spine
	{
		OFFSET	 0.000184	-0.007763	 0.117403
		CHANNELS 3 Zrotation Xrotation Yrotation
		JOINT Spine1
		{
			OFFSET	 0.000000	 0.000000	 0.137269
			CHANNELS 3 Zrotation Xrotation Yrotation
			JOINT Spine2
			{
				OFFSET	 0.000000	 0.000000	 0.156879
				CHANNELS 3 Zrotation Xrotation Yrotation
				JOINT LeftShoulder
				{
					OFFSET	 0.080501	-0.002496	 0.160144
					CHANNELS 3 Zrotation Xrotation Yrotation
					JOINT LeftArm
					{
						OFFSET	 0.000000	 0.000000	 0.164363
						CHANNELS 3 Zrotation Xrotation Yrotation
						JOINT LeftForeArm
						{
							OFFSET	 0.000000	 0.000000	 0.364576
							CHANNELS 3 Zrotation Xrotation Yrotation
							JOINT LeftHand
							{
								OFFSET	 0.000000	 0.000000	 0.360812
								CHANNELS 3 Zrotation Xrotation Yrotation
								JOINT LeftHandIndex1
								{
									OFFSET	 0.000000	 0.000000	 0.086006
									CHANNELS 3 Zrotation Xrotation Yrotation
									JOINT LeftHandIndex2
									{
										OFFSET	 0.000000	 0.000000	 0.047237
										CHANNELS 3 Zrotation Xrotation Yrotation
										JOINT LeftHandIndex3
										{
											OFFSET	-0.004284	-0.000551	 0.038165
											CHANNELS 3 Zrotation Xrotation Yrotation
											End Site
											{
												OFFSET	-0.004284	-0.000551	 0.038165
											}
										}
									}
								}
							}
						}
					}
				}
				JOINT Neck
				{
					OFFSET	 0.000000	 0.000000	 0.176489
					CHANNELS 3 Zrotation Xrotation Yrotation
					JOINT Head
					{
						OFFSET	 0.000000	-0.001747	 0.077940
						CHANNELS 3 Zrotation Xrotation Yrotation
						End Site
						{
							OFFSET	 0.000000	-0.001747	 0.077940
						}
					}
				}
				JOINT RightShoulder
				{
					OFFSET	-0.080363	 0.000306	 0.159706
					CHANNELS 3 Zrotation Xrotation Yrotation
					JOINT RightArm
					{
						OFFSET	 0.000000	 0.000000	 0.164196
						CHANNELS 3 Zrotation Xrotation Yrotation
						JOINT RightForeArm
						{
							OFFSET	 0.000000	 0.000000	 0.365611
							CHANNELS 3 Zrotation Xrotation Yrotation
							JOINT RightHand
							{
								OFFSET	 0.000000	 0.000000	 0.360648
								CHANNELS 3 Zrotation Xrotation Yrotation
								JOINT RightHandIndex1
								{
									OFFSET	 0.000000	 0.000000	 0.069977
									CHANNELS 3 Zrotation Xrotation Yrotation
									JOINT RightHandIndex2
									{
										OFFSET	 0.000000	 0.000000	 0.052305
										CHANNELS 3 Zrotation Xrotation Yrotation
										JOINT RightHandIndex3
										{
											OFFSET	 0.009002	-0.000782	 0.042196
											CHANNELS 3 Zrotation Xrotation Yrotation
											End Site
											{
												OFFSET	 0.009002	-0.000782	 0.042196
											}
										}
									}
								}
							}
						}
					}
				}
			}
		}
	}
}
MOTION
Frames:    4
Frame Time: 0.03333334
-0.436134	 0.305624	 1.236732	-171.640900	 3.954070	 11.054680	 40.527470	-0.439650	 166.778600	-13.364040	-30.801680	-7.235868	 144.609900	 72.314470	-152.670200	-2.385833	 28.452760	 0.000004	-10.614760	-30.963350	 166.115100	 2.933309	-51.331490	 1.101491	 40.481460	 81.977570	-26.833670	 2.384659	 28.388700	-0.000001	 30.195810	-8.752035	 1.595018	 37.987410	 6.526674	 24.846320	-3.854409	 4.562703	-15.296360	-91.776120	 78.527380	 180.000000	-14.507090	 40.943160	 10.476230	-2.003574	-1.010997	-94.433330	 4.339149	-33.091000	-1.306845	-4.130319	 21.525730	 0.991547	-5.167930	 0.731704	 3.519349	-1.378229	 35.397820	-2.634230	-13.177190	 9.003947	 6.912496	-20.471600	-23.356880	-16.007600	 89.782190	 78.203900	 179.999900	 48.303500	-15.254850	-19.735180	-13.514270	-7.648035	 48.905570	-43.407750	 0.038093	-64.111150	 5.716227	 19.173190	-3.685159	 5.027444	 0.246877	-9.377972	-2.350882	 35.473990	 5.254307
-0.434806	 0.306405	 1.237690	-172.236400	 4.175583	 11.225860	 40.617900	-0.655676	 167.011300	-13.421410	-30.697910	-7.244739	 144.299700	 71.745320	-152.272900	-2.385833	 28.452760	 0.000004	-10.867670	-30.973980	 165.792100	 3.047586	-51.061780	 1.186240	 40.718700	 81.987050	-27.129590	 2.384659	 28.388700	-0.000001	 30.885130	-9.716247	 1.947801	 37.981150	 7.028707	 24.419560	-4.042695	 4.367649	-15.600420	-91.776180	 78.527380	 180.000000	-12.507970	 40.546110	 8.804533	-1.997918	-1.027819	-94.110370	 3.439514	-31.621940	-1.518008	-4.130319	 21.525730	 0.991547	-5.167930	 0.731704	 3.519349	-1.378229	 35.397820	-2.634230	-13.349210	 8.760533	 6.880834	-20.653210	-23.259590	-16.285230	 89.782140	 78.203900	 180.000000	 50.665840	-14.605640	-19.085420	-13.280480	-7.512107	 49.325170	-42.438730	 1.337748	-62.593730	 5.716227	 19.173190	-3.685159	 5.027444	 0.246877	-9.377972	-2.350882	 35.473990	 5.254307
-0.434091	 0.306664	 1.238220	-172.567100	 4.243561	 11.282220	 40.639290	-0.686100	 167.145600	-13.428510	-30.628420	-7.233852	 144.112700	 71.675940	-152.046900	-2.385833	 28.452760	 0.000004	-10.996940	-30.936680	 165.668300	 3.122708	-50.923790	 1.242263	 40.353200	 82.034370	-26.756480	 2.384659	 28.388700	-0.000001	 31.294520	-10.116710	 2.120587	 37.999830	 7.301987	 24.223280	-4.169916	 4.235310	-15.732250	-91.776190	 78.527400	-180.000000	-11.506610	 40.337510	 7.932995	-1.994750	-1.015418	-93.942700	 3.021849	-30.904660	-1.618134	-4.130319	 21.525730	 0.991547	-5.167930	 0.731704	 3.519349	-1.378229	 35.397820	-2.634230	-13.442710	 8.556376	 6.836419	-20.748800	-23.125010	-16.308380	 89.782040	 78.203900	-180.000000	 51.702270	-14.240570	-18.844700	-13.121860	-7.408466	 49.575170	-42.159550	 1.738388	-62.212040	 5.716227	 19.173190	-3.685159	 5.027444	 0.246877	-9.377972	-2.350882	 35.473990	 5.254307
-0.433659	 0.306785	 1.238550	-172.757100	 4.283117	 11.316070	 40.650590	-0.706277	 167.222700	-13.432850	-30.589660	-7.228001	 143.999600	 71.636000	-151.911600	-2.385833	 28.452760	 0.000004	-11.071060	-30.911980	 165.596200	 3.165527	-50.838040	 1.273962	 40.124770	 82.057890	-26.523320	 2.384659	 28.388700	-0.000001	 31.534010	-10.347310	 2.219933	 38.016000	 7.460949	 24.109060	-4.243845	 4.158087	-15.808010	-91.776200	 78.527380	-180.000000	-10.925330	 40.225980	 7.404066	-1.992749	-1.008279	-93.835810	 2.788657	-30.489490	-1.671417	-4.130319	 21.525730	 0.991547	-5.167930	 0.731704	 3.519349	-1.378229	 35.397820	-2.634230	-13.496610	 8.438914	 6.810536	-20.803810	-23.047430	-16.321740	 89.782070	 78.203920	-180.000000	 52.297000	-14.000310	-18.723330	-13.028410	-7.351231	 49.741750	-42.000000	 1.946271	-62.032590	 5.716227	 19.173190	-3.685159	 5.027444	 0.246877	-9.377972	-2.350882	 35.473990	 5.254307
